<?xml version="1.0" encoding="utf-8"?>
<!-- Generator: Adobe Illustrator 24.2.1, SVG Export Plug-In . SVG Version: 6.00 Build 0)  -->
<svg version="1.1" xmlns="http://www.w3.org/2000/svg" xmlns:xlink="http://www.w3.org/1999/xlink" x="0px" y="0px"
	 viewBox="0 0 306.92 86.68" style="enable-background:new 0 0 306.92 86.68;" xml:space="preserve">
<style type="text/css">
	.st0{clip-path:url(#SVGID_2_);}
	.st1{clip-path:url(#SVGID_4_);}
	.st2{fill:#231F20;}
	.st3{fill:#FFFFFF;stroke:#FFFFFF;stroke-width:10;stroke-miterlimit:10;}
	.st4{fill:none;stroke:#231F20;stroke-width:10;stroke-miterlimit:10;}
	.st5{fill:none;stroke:#231F20;stroke-width:10.526;stroke-miterlimit:10;}
	.st6{fill:#231F20;stroke:#231F20;stroke-width:10;stroke-miterlimit:10;}
	.st7{fill:none;stroke:#231F20;stroke-width:0.6692;stroke-miterlimit:10;}
	.st8{fill:none;stroke:#231F20;stroke-width:0.7386;stroke-miterlimit:10;}
	.st9{fill:none;stroke:#231F20;stroke-width:0.705;stroke-miterlimit:10;}
	.st10{fill:none;stroke:#231F20;stroke-width:0.9961;stroke-miterlimit:10;}
	.st11{fill:#FFFFFF;}
	.st12{fill:none;stroke:#FFFFFF;stroke-width:10;stroke-miterlimit:10;}
	.st13{fill:#F4A41E;}
	.st14{fill:#202020;}
	.st15{fill:#F6B03A;}
	.st16{fill:#1D2229;}
	.st17{fill:#96968C;}
	.st18{fill:#E5E5E5;}
	.st19{clip-path:url(#SVGID_10_);}
	.st20{clip-path:url(#SVGID_14_);}
	.st21{fill:url(#);}
	.st22{clip-path:url(#SVGID_16_);}
	.st23{clip-path:url(#SVGID_18_);}
	.st24{clip-path:url(#SVGID_20_);}
	.st25{clip-path:url(#SVGID_22_);}
	.st26{clip-path:url(#SVGID_26_);}
	.st27{clip-path:url(#SVGID_28_);}
	.st28{clip-path:url(#SVGID_30_);}
	.st29{fill:#85474C;}
	.st30{fill:#F22929;}
	.st31{fill:#8CBF3F;}
	.st32{fill:#F9C978;}
	.st33{clip-path:url(#SVGID_34_);}
	.st34{clip-path:url(#SVGID_36_);}
	.st35{clip-path:url(#SVGID_38_);}
	.st36{fill:#ED1C24;}
	.st37{fill:none;stroke:#ED1C24;stroke-width:5.1867;stroke-miterlimit:10;}
	.st38{fill:none;stroke:#ED1C24;stroke-width:5;stroke-miterlimit:10;}
	.st39{fill:none;stroke:#ED1C24;stroke-width:5.787;stroke-miterlimit:10;}
</style>
<g id="Grid">
</g>
<g id="Layer_2">
	<g>
		<g>
			<path class="st11" d="M194.03,0.01l-2.37,12.16l-0.88,4.06l16.48-0.01l0.88-4.05L210.51,0L194.03,0.01z M188.76,25.99
				l-11.63,60.66l16.48-0.01l11.62-60.65L188.76,25.99z"/>
			<path class="st11" d="M99.12,0.01l-3.2,16.12l-12.89,0L69.3,86.67l-17.52,0l13.73-70.55l-12.14,0.02l3.2-16.12L99.12,0.01z"/>
			<path class="st11" d="M34.8,28.16l2.26-12.02h-9.29L25.5,28.16c-0.14,0.72-0.09,1.33,0.16,1.85c0.24,0.52,0.58,1.05,1.03,1.61
				l16.42,19.56c0.68,0.72,1.18,1.36,1.48,1.91c0.31,0.56,0.54,1.12,0.71,1.67c0.16,0.56,0.21,1.19,0.14,1.91
				c-0.07,0.72-0.21,1.59-0.41,2.63l-3.94,20.19c-0.65,2.06-1.95,3.81-3.63,5.03c-1.66,1.22-3.72,1.93-5.9,1.93H10.01
				c-6.3,0-11.03-5.75-9.82-11.93l3.1-15.82h16.25l-2.47,11.73h9.3l2.46-11.73c0.14-0.72,0.12-1.31-0.06-1.79
				c-0.19-0.48-0.56-1.03-1.12-1.67L10.22,34.48c-0.88-1.11-1.35-2.06-1.4-2.86c-0.02-0.36-0.02-0.73,0-1.13l4.44-22.64
				c0.32-1.62,1.01-3.08,1.98-4.29c0.75-0.73,1.69-1.33,2.83-1.82c2.7-1.15,6.25-1.73,10.66-1.73h13.84c2.11,0,3.96,0.14,5.57,0.39
				c3.96,1.48,6.66,5.38,6.49,9.74l-3.51,18.02H34.8z"/>
			<path class="st11" d="M176.28,0.01h-29.78l-17,86.68h33.71c4.78,0,8.9-3.39,9.82-8.08l13.07-66.67
				C187.31,5.75,182.58,0.01,176.28,0.01z M158.7,70.64l-9.72,0.06l10.51-54.33l9.72-0.06L158.7,70.64z"/>
			<path class="st11" d="M124.82,0.01l-14.05,70.64l-9.31,0L115.5,0.01H98.99L84.3,74.73c-1.21,6.19,3.53,11.95,9.84,11.95h21.59
				c4.79,0,8.92-3.39,9.84-8.1l15.44-78.58H124.82z"/>
			<g>
				<path class="st11" d="M246.27,0.01h-21.55c-4.78,0-8.9,3.39-9.82,8.08l-13.07,66.67c-1.21,6.18,3.52,11.93,9.82,11.93h21.55
					c4.78,0,8.9-3.39,9.82-8.08l13.07-66.67C257.3,5.75,252.57,0.01,246.27,0.01z M228.47,70.4l-9.72,0.06l10.51-54.33l9.72-0.06
					L228.47,70.4z"/>
			</g>
		</g>
		<path class="st11" d="M306.92,0l-17,86.68h-41.94l17-86.68H306.92z M281.17,82.34c-0.3,1.52-0.91,2.97-1.84,4.34h-5.68
			c0.82-0.69,1.46-1.37,1.93-2.05c0.49-0.7,0.8-1.4,0.94-2.09c0.15-0.79,0.06-1.38-0.27-1.77c-0.33-0.39-0.76-0.58-1.27-0.58
			c-0.32-0.01-0.6,0.04-0.85,0.14c-0.25,0.1-0.5,0.26-0.74,0.49c-0.24,0.23-0.48,0.53-0.72,0.9c-0.23,0.37-0.51,0.81-0.81,1.34
			c-0.35,0.62-0.71,1.23-1.1,1.83c-0.39,0.6-0.85,1.13-1.38,1.6c-0.08,0.07-0.16,0.13-0.24,0.19h-8.54
			c-0.15-0.13-0.3-0.26-0.43-0.41c-0.49-0.55-0.83-1.23-1.01-2.03c-0.17-0.8-0.16-1.69,0.03-2.68c0.18-0.92,0.51-1.88,0.99-2.88
			c0.49-1,1.1-1.96,1.83-2.88l3.88,1.95c-0.59,0.52-1.05,1.04-1.38,1.57c-0.34,0.52-0.55,1.03-0.65,1.53
			c-0.12,0.62-0.05,1.13,0.2,1.53c0.26,0.39,0.66,0.59,1.19,0.6c0.37,0,0.7-0.1,0.98-0.3c0.28-0.19,0.54-0.45,0.77-0.77
			c0.24-0.32,0.47-0.68,0.68-1.08c0.2-0.4,0.42-0.8,0.65-1.2c0.9-1.57,1.92-2.72,3.05-3.45c1.13-0.73,2.5-1.08,4.09-1.08
			c1.07,0.01,2.02,0.17,2.82,0.5c0.81,0.32,1.47,0.8,1.96,1.42c0.5,0.61,0.84,1.37,1,2.27C281.42,80.19,281.39,81.2,281.17,82.34z
			 M284.09,64.43l-0.94,4.84l-16.34-0.08l-0.78,3.97l-4.61-0.03l2.5-12.77l4.62,0.02l-0.78,3.97L284.09,64.43z M287.24,48.38
			l-8.96,4.57l8.05,0.04l-0.94,4.84l-20.95-0.11l1.47-7.52c0.21-1.04,0.55-1.94,1.05-2.71c0.49-0.77,1.08-1.41,1.78-1.9
			c0.69-0.5,1.44-0.88,2.27-1.13s1.69-0.37,2.58-0.37c1.59,0.01,2.82,0.36,3.67,1.04c0.86,0.69,1.33,1.7,1.43,3.04l9.72-5.8
			L287.24,48.38z M274.69,49.82c-0.34-0.51-0.93-0.77-1.77-0.77c-0.83-0.01-1.52,0.25-2.06,0.75c-0.55,0.51-0.91,1.24-1.1,2.2
			l-0.18,0.91l5.17,0.02l0.18-0.91C275.11,51.07,275.03,50.34,274.69,49.82z M290.98,29.27l-2.07,10.58l-20.95-0.11l2.07-10.58
			l4.61,0.03l-1.12,5.74l3.5,0.02l1.06-5.42l4.61,0.02l-1.06,5.42l3.61,0.02l1.13-5.74L290.98,29.27z M293.83,14.72l-2.07,10.58
			l-20.95-0.1l2.07-10.58l4.61,0.02l-1.12,5.74l3.5,0.02l1.06-5.42l4.61,0.02l-1.06,5.43l3.61,0.01l1.12-5.74L293.83,14.72z
			 M275.74,0l-2.43,12.4l4.61,0.02l0.78-3.97l16.34,0.08l0.94-4.83l-16.33-0.08L280.36,0H275.74z"/>
	</g>
</g>
<g id="Layer_3">
</g>
<g id="Layer_4">
</g>
</svg>
